<!--?xml version="1.0" encoding="utf-8"?-->
<!-- Generator: Adobe Illustrator 15.0.0, SVG Export Plug-In . SVG Version: 6.00 Build 0)  -->

<svg xmlns="http://www.w3.org/2000/svg" xmlns:xlink="http://www.w3.org/1999/xlink" width="500px" height="500px" viewBox="0 0 500 500">
<path fill="#FFFFFF" d="M76.403,450.517c0,0-0.412,10.62,9.967,10.62c12.923,0,119.849-0.138,119.849-0.138l0.189-98.212
	c0,0-1.701-16.188,14.023-16.188h49.733c18.577,0,17.426,16.188,17.426,16.188l-0.206,97.903c0,0,101.392,0,117.322,0
	c13.181,0,12.579-13.232,12.579-13.232V266.396L251.948,119.31L76.403,266.396V450.517z" id="path-0"></path>
<path fill="#FFFFFF" d="M11.753,252.7c0,0,14.917,27.479,47.414,0L253.409,88.377l182.109,163.309c37.636,27.136,51.728,0,51.728,0
	L253.409,39.863L11.753,252.7z" id="path-1" style="position: relative;"></path>
<polygon fill="#FFFFFF" points="431.103,87.981 384.256,87.981 384.462,144.795 431.103,184.372 "></polygon>
<circle fill="#FFFFFF" cx="245.923" cy="305.658" r="25.641" id="circle-0" style="position: relative;"></circle>
</svg>
